<?xml version="1.0" standalone="no"?><!DOCTYPE svg PUBLIC "-//W3C//DTD SVG 1.1//EN" "http://www.w3.org/Graphics/SVG/1.1/DTD/svg11.dtd">
<svg t="1543837465288" class="icon" style="" viewBox="0 0 1317 1024" version="1.1" 
    xmlns="http://www.w3.org/2000/svg" p-id="6579" 
    xmlns:xlink="http://www.w3.org/1999/xlink" width="257.2265625" height="200">
    <defs>
        <style type="text/css"></style>
    </defs>
    <path d="M1243.428571 329.142857q30.285714 0 51.714286 21.428571t21.428571 51.714286l0 219.428571q0 30.285714-21.428571 51.714286t-51.714286 21.428571l0 91.428571q0 37.714286-26.857143 64.571429t-64.571429 26.857143l-1060.571429 0q-37.714286 0-64.571429-26.857143t-26.857143-64.571429l0-548.571429q0-37.714286 26.857143-64.571429t64.571429-26.857143l1060.571429 0q37.714286 0 64.571429 26.857143t26.857143 64.571429l0 91.428571zm0 292.571429l0-219.428571-73.142857 0 0-164.571429q0-8-5.142857-13.142857t-13.142857-5.142857l-1060.571429 0q-8 0-13.142857 5.142857t-5.142857 13.142857l0 548.571429q0 8 5.142857 13.142857t13.142857 5.142857l1060.571429 0q8 0 13.142857-5.142857t5.142857-13.142857l0-164.571429 73.142857 0z" p-id="6580"></path>
</svg>
